<?xml version="1.0" standalone="no"?>
<!DOCTYPE svg PUBLIC "-//W3C//DTD SVG 20010904//EN"
 "http://www.w3.org/TR/2001/REC-SVG-20010904/DTD/svg10.dtd">
<svg version="1.0" xmlns="http://www.w3.org/2000/svg"
 width="372.000000pt" height="114.000000pt" viewBox="0 0 372.000000 114.000000"
 preserveAspectRatio="xMidYMid meet">

<g transform="translate(0.000000,114.000000) scale(0.100000,-0.100000)"
fill="#000000" stroke="none">
<path d="M1900 765 c-8 -2 -36 -7 -62 -10 l-48 -6 0 -56 c0 -48 2 -54 18 -48
104 40 272 46 311 11 39 -35 27 -43 -81 -49 -127 -8 -197 -28 -242 -70 -68
-65 -53 -157 30 -185 47 -17 175 -10 250 13 63 19 64 19 64 -6 0 -18 5 -20 53
-17 l52 3 0 173 0 174 -30 24 c-16 13 -46 29 -65 34 -36 11 -224 22 -250 15z
m230 -259 c0 -33 -3 -36 -57 -56 -77 -30 -184 -38 -202 -17 -7 9 -10 25 -6 36
12 38 76 56 248 70 13 1 17 -7 17 -33z"/>
<path d="M2523 761 c-18 -5 -44 -16 -58 -25 -24 -16 -25 -16 -25 4 0 18 -6 20
-55 20 l-55 0 0 -210 0 -210 55 0 55 0 0 139 c0 118 3 142 17 157 44 44 146
59 176 26 14 -16 17 -43 17 -170 l0 -152 50 0 49 0 3 147 3 147 32 22 c42 28
107 38 141 22 l27 -13 3 -163 2 -162 50 0 50 0 0 183 c0 200 1 195 -60 228
-55 28 -207 11 -246 -29 -13 -12 -20 -13 -33 -4 -59 42 -135 59 -198 43z"/>
<path d="M3305 764 c-16 -2 -54 -7 -82 -10 l-53 -5 0 -56 c0 -49 2 -54 18 -48
90 38 258 49 298 20 12 -8 24 -12 26 -9 3 2 5 -7 4 -21 -1 -25 -3 -25 -96 -30
-165 -7 -258 -49 -281 -124 -10 -33 -9 -45 7 -78 17 -34 25 -40 76 -52 50 -13
67 -13 150 2 51 9 105 19 121 23 20 5 27 3 27 -9 0 -11 13 -16 50 -19 l50 -3
0 172 0 171 -30 26 c-17 14 -48 30 -68 35 -44 12 -175 21 -217 15z m266 -50
c15 -19 21 -47 8 -38 -5 3 -7 10 -4 15 4 5 1 9 -5 9 -7 0 -14 -9 -17 -21 -4
-12 -11 -18 -20 -15 -8 3 -20 6 -26 6 -7 0 3 8 21 16 32 16 46 42 16 30 -8 -3
-12 -2 -9 4 9 14 21 12 36 -6z m-97 -122 c3 -5 -1 -9 -9 -9 -8 0 -12 4 -9 9 3
4 7 8 9 8 2 0 6 -4 9 -8z m-4 -26 c0 -2 -7 -7 -16 -10 -8 -3 -12 -2 -9 4 6 10
25 14 25 6z m44 -34 c9 -14 15 -62 8 -60 -4 1 -20 -4 -37 -11 -16 -7 -66 -22
-110 -33 -103 -26 -137 -16 -133 37 1 19 4 32 7 30 2 -3 10 0 17 6 31 25 235
51 248 31z m-59 -131 c3 -5 2 -12 -3 -15 -5 -3 -9 1 -9 9 0 17 3 19 12 6z"/>
<path d="M624 741 c-9 -10 -3 -324 7 -343 33 -62 215 -82 313 -34 64 31 66 31
59 6 -5 -18 0 -20 51 -20 l55 0 3 132 3 133 44 24 c56 31 175 41 206 18 21
-16 21 -24 25 -279 l0 -38 55 0 55 0 0 158 c0 175 -5 194 -60 226 -29 17 -52
21 -135 21 -90 0 -105 -3 -147 -27 l-48 -27 0 25 c0 24 -2 25 -52 22 l-53 -3
-3 -132 -3 -131 -51 -26 c-40 -20 -67 -26 -116 -26 -104 0 -102 -4 -102 169
l0 149 -51 4 c-28 1 -53 1 -55 -1z"/>
<path d="M1633 717 l-53 -32 0 -172 0 -173 55 0 55 0 0 205 c0 113 -1 205 -2
205 -2 -1 -27 -15 -55 -33z"/>
<path d="M1300 636 c0 -2 7 -7 16 -10 8 -3 12 -2 9 4 -6 10 -25 14 -25 6z"/>
</g>
</svg>
